<?xml version="1.0" standalone="no"?>
<!DOCTYPE svg PUBLIC "-//W3C//DTD SVG 20010904//EN"
 "http://www.w3.org/TR/2001/REC-SVG-20010904/DTD/svg10.dtd">
<svg version="1.0" xmlns="http://www.w3.org/2000/svg"
 width="957.000000pt" height="971.000000pt" viewBox="0 0 957.000000 971.000000"
 preserveAspectRatio="xMidYMid meet">

<g transform="translate(0.000000,971.000000) scale(0.100000,-0.100000)"
fill="#000000" stroke="none">
<path d="M128 6193 c-1 -1853 -2 -3982 -3 -4733 l0 -1365 3960 0 c2178 0 4278
1 4668 3 l707 2 -2 4730 -3 4730 -4662 0 -4663 0 -2 -3367z m9058 -1273 c0
-2412 -1 -4424 -4 -4472 l-3 -88 -4384 3 c-2411 1 -4387 6 -4392 10 -4 5 -8
2014 -8 4465 l0 4457 4230 5 c2327 3 4304 5 4395 5 l165 0 1 -4385z"/>
<path d="M1036 8182 c-5 -8 -10 -3936 -7 -5790 l1 -1022 393 2 392 3 -4 1556
-3 1557 73 7 c267 25 511 125 747 304 94 72 184 131 199 131 15 0 58 -64 105
-155 90 -177 241 -703 324 -1135 31 -162 91 -414 134 -565 18 -60 40 -142 50
-182 11 -40 35 -125 55 -190 20 -65 50 -163 66 -218 65 -216 248 -784 263
-814 6 -13 31 -85 56 -160 l45 -136 493 -3 c270 -1 492 0 492 2 0 2 -30 80
-66 173 -36 92 -87 227 -114 298 -27 72 -65 168 -85 215 -20 47 -53 135 -74
195 -21 61 -54 151 -73 200 -20 50 -52 133 -71 185 -20 52 -52 138 -71 190
-20 53 -36 99 -36 103 0 4 164 7 365 7 l365 0 2 -782 3 -783 485 0 485 0 3
1017 2 1018 318 0 317 0 2 -498 c1 -273 2 -732 2 -1019 l1 -523 465 0 c364 0
466 3 470 13 8 26 13 3429 8 5081 l-6 1728 -356 -6 c-196 -3 -408 -5 -471 -6
l-115 0 -2 -1776 c-2 -976 -5 -1779 -8 -1785 -4 -5 -134 -9 -322 -9 l-316 0 8
1785 7 1785 -491 0 -492 0 3 -1784 3 -1784 -181 5 c-176 6 -363 -6 -437 -28
-18 -5 -71 -18 -119 -29 -99 -22 -220 -76 -339 -150 -78 -49 -99 -54 -99 -25
0 14 -54 158 -70 188 -6 9 -21 47 -35 85 -28 73 -61 140 -111 218 -18 27 -39
66 -47 85 -20 47 -153 217 -265 339 l-94 102 19 21 c11 12 62 69 114 128 101
113 174 201 283 344 38 49 72 92 76 95 32 27 309 407 339 468 7 12 34 52 62
90 54 71 185 284 241 392 19 36 52 92 73 124 21 33 64 116 95 185 32 69 76
164 98 211 54 112 126 284 164 390 37 101 98 300 98 318 0 9 -48 12 -209 12
l-208 0 -7 -51 c-8 -59 -87 -314 -117 -379 -12 -25 -28 -62 -35 -83 -18 -52
-106 -225 -188 -372 -65 -115 -98 -167 -243 -380 -146 -215 -144 -211 -273
-365 -17 -19 -51 -62 -77 -96 -159 -203 -427 -486 -618 -650 -259 -223 -542
-377 -766 -417 -133 -24 -229 -29 -302 -17 l-67 12 -2 1402 -3 1401 -382 3
c-210 1 -384 -1 -387 -6z m3994 -3847 c234 -43 322 -75 419 -149 140 -108 211
-244 211 -403 0 -72 -29 -187 -60 -240 -35 -59 -108 -130 -182 -178 -62 -41
-206 -97 -281 -110 -18 -4 -50 -10 -73 -15 -22 -5 -113 -14 -201 -21 -274 -19
-489 8 -657 85 -89 41 -116 67 -161 156 -63 125 -135 433 -135 578 0 173 188
271 620 326 92 12 369 -4 500 -29z"/>
</g>
</svg>
